<svg width="72" height="39" viewBox="0 0 72 39" fill="none" xmlns="http://www.w3.org/2000/svg">
<rect width="72" height="39" fill="#1E1E1E"/>
<rect width="1600" height="1000" transform="translate(-1417 -85)" fill="#F8F8F8"/>
<g filter="url(#filter0_i_0_1)">
<path d="M71 17.4062C71 26.4672 63.6547 33.8125 54.5938 33.8125L17.4062 33.8125C8.34533 33.8125 1 26.4672 1 17.4062C1 8.34532 8.34533 0.999995 17.4063 0.999995L54.5938 0.999999C63.6547 0.999999 71 8.34533 71 17.4062Z" fill="#242424"/>
</g>
<path d="M71 17.4062C71 26.4672 63.6547 33.8125 54.5938 33.8125L17.4062 33.8125C8.34533 33.8125 1 26.4672 1 17.4062C1 8.34532 8.34533 0.999995 17.4063 0.999995L54.5938 0.999999C63.6547 0.999999 71 8.34533 71 17.4062Z" stroke="#808080"/>
<g filter="url(#filter1_d_0_1)">
<path d="M67 17.2188C67 25.0715 60.634 31.4375 52.7812 31.4375C44.9285 31.4375 38.5625 25.0715 38.5625 17.2187C38.5625 9.36595 44.9285 3 52.7813 3C60.6341 3 67 9.36595 67 17.2188Z" fill="#2400FF"/>
</g>
<g clip-path="url(#clip0_0_1)">
<path d="M61.7039 21.1508C61.6699 21.152 61.6359 21.1531 61.602 21.1531C61.0406 21.1531 60.5121 20.9316 60.116 20.5274C59.7187 20.1242 59.5008 19.5887 59.5008 19.018C59.5008 18.6934 59.5723 18.3793 59.7059 18.0957C59.7422 18.0184 59.8148 17.9012 59.8652 17.8215C59.8875 17.7875 59.8594 17.743 59.8195 17.75C59.7492 17.7606 59.6414 17.784 59.4949 17.8297C58.5832 18.1191 57.9375 18.977 57.9375 19.9883C57.9375 21.2375 58.9348 22.25 60.1652 22.25C60.8449 22.25 61.4543 21.9406 61.8633 21.452C61.9336 21.3676 61.998 21.2902 62.0555 21.1965C62.0766 21.1613 62.0473 21.118 62.0074 21.125C61.9078 21.1449 61.807 21.1461 61.7039 21.1508Z" fill="white"/>
</g>
<path d="M45.0473 9.43604C44.4809 10.2546 43.6428 11.6901 43.2362 13.6611C42.8961 15.3095 42.9861 16.7104 43.1184 17.6273C44.0068 18.2754 44.7313 18.4063 45.2191 18.4113C46.3568 18.423 47.6469 17.7644 48.8806 17.7345C49.1358 17.7284 49.3987 17.7363 49.3987 17.7363C49.935 17.7524 50.3819 17.8101 50.7058 17.8643C50.4209 17.7839 45.9152 16.4377 44.986 12.5384C44.6947 11.316 44.844 10.2166 45.0473 9.43604Z" fill="#CECECE"/>
<path d="M43.2111 18.1888C43.4153 19.157 43.8719 20.6445 44.9804 22.1142C47.3143 25.2084 50.7685 25.8778 51.6785 26.025C51.5261 25.1568 51.4041 23.9144 51.5791 22.4419C51.7549 20.9621 52.1679 19.778 52.5213 18.968C50.9258 18.1403 49.6748 18.0534 48.814 18.1356C47.1949 18.2901 46.028 19.1307 44.323 18.6675C43.8285 18.5332 43.4492 18.3328 43.2111 18.1888L43.2111 18.1888Z" fill="#CECECE"/>
<path d="M45.5792 22.8312C46.3266 22.8073 47.3797 22.6795 48.5379 22.2119C50.7621 21.3141 52.0121 19.7129 52.5214 18.9679C52.3363 19.391 52.1632 19.8523 52.0141 20.3517C51.3506 22.5738 51.4489 24.5913 51.6785 26.0249C50.1951 25.7652 48.146 25.1455 46.337 23.5675C46.0602 23.3261 45.8084 23.0791 45.5792 22.8312Z" fill="#D0D0D0"/>
<path d="M45.0474 9.43604C44.617 10.0576 44.1301 10.8903 43.738 11.9317C43.1521 13.488 43.0154 14.8795 43.0012 15.8326C43.2398 15.5906 43.4804 15.4383 43.6919 15.3396C45.3653 14.5585 47.3729 16.1213 47.524 16.2422C47.062 15.904 45.3368 14.5571 44.9113 12.1772C44.7035 11.0149 44.8823 10.035 45.0474 9.43606L45.0474 9.43604Z" fill="white"/>
<path d="M43.2111 18.1884C43.6864 18.7273 44.7119 19.7297 46.328 20.2052C49.5009 21.1387 52.1749 19.2243 52.5213 18.9675C52.0823 19.6252 51.0944 20.9129 49.345 21.835C47.7897 22.6549 46.3544 22.8053 45.5791 22.8309C45.1335 22.3437 44.5799 21.6398 44.0979 20.7037C43.5994 19.7356 43.3464 18.8476 43.2111 18.1884H43.2111Z" fill="#969696"/>
<path d="M51.0942 7C50.9102 7.33244 50.6686 7.86615 50.5691 8.56217C50.492 9.10132 50.5254 9.56209 50.5759 9.89266C50.9166 9.76932 51.2934 9.6494 51.7043 9.54264C52.1511 9.42652 52.571 9.34344 52.9555 9.28394C52.8318 8.96274 52.6259 8.53148 52.2803 8.08533C51.8643 7.54814 51.4126 7.20456 51.0941 7H51.0942Z" fill="#CECECE"/>
<path d="M59.2331 7.28674C58.923 7.45397 58.4849 7.73561 58.0569 8.18909C57.6217 8.65011 57.3638 9.11191 57.215 9.43427C57.5817 9.51803 57.9801 9.62608 58.4021 9.76642C58.8217 9.90599 59.2036 10.0572 59.546 10.2089C59.6249 9.86847 59.705 9.34228 59.6346 8.70602C59.566 8.08526 59.3806 7.59916 59.2331 7.28674H59.2331Z" fill="#CECECE"/>
<path d="M50.5536 10.3568C50.5019 10.9021 50.4825 11.5748 50.5596 12.338C50.6417 13.1515 50.8109 13.8446 50.9839 14.3901C51.4464 13.2956 52.0188 12.6114 52.4798 12.1788C52.9003 11.7841 53.3657 11.4697 53.5563 10.8425C53.7028 10.3608 53.6239 9.90301 53.5276 9.5802C53.1342 9.62102 52.6939 9.68991 52.2196 9.8031C51.5737 9.95723 51.0155 10.1575 50.5536 10.3568Z" fill="#7C7C7C"/>
<path d="M53.9238 9.5428C53.9858 9.75103 54.0604 10.0958 54.0214 10.5199C54.0065 10.6815 53.9703 11.0385 53.7677 11.4216C53.5118 11.9056 53.2406 11.9578 52.6217 12.6717C52.4629 12.8548 52.3423 13.0111 52.2682 13.1101C53.169 13.5622 54.0699 14.0144 54.9707 14.4665C55.4068 14.235 57.4073 13.1167 57.7559 11.0315C57.8063 10.7305 57.8291 10.3679 57.7812 9.95149C57.2115 9.78507 56.5059 9.62918 55.6887 9.55643C55.0266 9.49751 54.4312 9.50561 53.9238 9.54284L53.9238 9.5428Z" fill="white"/>
<path d="M59.5635 10.6203C59.5991 10.9228 59.6199 11.2501 59.6171 11.5994C59.6069 12.8837 59.2818 13.9487 58.9604 14.7073C58.959 14.6469 58.9298 13.9459 58.3152 13.5461C57.729 13.1647 57.1094 13.3822 57.0432 13.4068C57.2904 13.13 57.6125 12.7033 57.8575 12.1181C58.2157 11.2627 58.2308 10.4947 58.2063 10.0636C58.6587 10.2492 59.1111 10.4347 59.5635 10.6203V10.6203Z" fill="#CECECE"/>
<path d="M51.0872 14.8118C51.7171 15.9586 52.3471 17.1055 52.9771 18.2523C53.3884 18.4109 54.0174 18.5991 54.8032 18.6318C55.6323 18.6662 56.3053 18.5137 56.737 18.3802C57.4408 17.2754 58.1446 16.1706 58.8485 15.0658C58.6192 15.1278 58.3186 15.1973 57.9622 15.2484C57.6616 15.2915 57.2934 15.3254 56.8101 15.3233C55.8487 15.3189 55.7985 15.1777 54.9026 15.1479C54.0962 15.1211 54.0921 15.2339 53.1761 15.189C52.6305 15.1623 52.2196 15.102 51.8512 15.0217C51.5398 14.9537 51.2802 14.8761 51.0872 14.8118L51.0872 14.8118Z" fill="white"/>
<path d="M52.9651 18.9478C53.4952 19.5846 54.0253 20.2215 54.5554 20.8584C54.0639 21.5546 53.524 22.4335 53.0364 23.4958C52.588 24.4728 52.2872 25.3795 52.0816 26.1548C51.8673 24.8128 51.7568 22.8741 52.3481 20.6954C52.5235 20.0493 52.7377 19.4662 52.9651 18.9478L52.9651 18.9478Z" fill="white"/>
<path d="M56.3453 19.3599C55.6739 20.0568 54.8742 21.018 54.1425 22.2696C53.3008 23.7092 52.8309 25.0506 52.559 26.0692C53.558 26.2359 54.3783 26.2172 54.9413 26.1678C55.8684 26.0865 56.2477 25.9088 56.5214 25.7131C56.6378 25.6299 56.996 25.3737 57.198 24.9545C57.6322 24.0533 56.9516 23.2136 56.573 21.4919C56.4649 21.0005 56.346 20.2758 56.3453 19.3599H56.3453Z" fill="#D0D0D0"/>
<path d="M54.5469 14.9086C54.3157 14.7546 54.0012 14.5532 53.6171 14.3312C53.4112 14.2123 53.2495 14.1244 53.073 14.0287C52.8126 13.8874 52.472 13.7071 52.0657 13.5038C52.0095 13.6164 51.9168 13.8397 51.9184 14.1342C51.9197 14.3925 51.9929 14.5922 52.0433 14.7032C52.3571 14.6915 52.698 14.6928 53.062 14.7143C53.6138 14.747 54.1119 14.82 54.547 14.9086L54.5469 14.9086Z" fill="white"/>
<path d="M55.3286 14.9356C55.7704 14.684 56.2552 14.4309 56.7826 14.1869C57.1626 14.011 57.531 13.8555 57.8847 13.7177C57.9334 13.8339 58.0161 14.0763 57.9827 14.3851C57.9565 14.6262 57.8704 14.8074 57.8111 14.9108C57.4979 14.8751 57.1545 14.8508 56.7848 14.8466C56.2447 14.8405 55.7555 14.8784 55.3286 14.9356Z" fill="white"/>
<path d="M53.463 18.8531C53.8193 18.9444 54.2775 19.0285 54.814 19.0469C55.3569 19.0655 55.8245 19.0114 56.1887 18.9434C55.7138 19.4502 55.2389 19.9569 54.764 20.4636C54.3303 19.9268 53.8966 19.39 53.463 18.8531Z" fill="white"/>
<path d="M55.3187 14.9373C55.5604 14.8003 55.8886 14.6221 56.2877 14.4283C56.5016 14.3244 56.6692 14.2484 56.8521 14.1657C57.122 14.0435 57.4747 13.8882 57.8946 13.7146C57.9426 13.8309 58.0189 14.0603 57.9962 14.3539C57.9763 14.6116 57.8889 14.8054 57.8307 14.9125C57.5185 14.8782 57.1784 14.855 56.8138 14.8503C56.2611 14.8432 55.759 14.8802 55.3187 14.9373L55.3187 14.9373Z" fill="white"/>
<path d="M50.9839 14.3901C50.7309 13.5371 50.5243 12.486 50.5129 11.2807C50.5099 10.9565 50.5212 10.6463 50.5432 10.3517C50.9946 10.1608 51.5349 9.9694 52.1564 9.81842C52.6552 9.69725 53.117 9.62378 53.5277 9.5802C53.4425 9.76331 53.2957 10.0446 53.0611 10.348C52.3819 11.2259 51.7105 11.3274 51.2709 11.8444C50.9442 12.2286 50.6607 12.9419 50.9839 14.3901L50.9839 14.3901Z" fill="#969696"/>
<path d="M57.0942 12.6323C56.7032 12.5437 56.0361 12.3362 55.3806 11.8108C54.3613 10.9938 54.0267 9.93508 53.9236 9.54282C54.4517 9.50407 55.0819 9.49643 55.7874 9.56571C56.5643 9.64199 57.2361 9.79224 57.781 9.95147C57.813 10.2345 57.8243 10.6075 57.7522 11.0347C57.6265 11.7804 57.3086 12.3253 57.0942 12.6323V12.6323Z" fill="#969696"/>
<path d="M58.2062 10.0636C58.6586 10.2492 59.111 10.4347 59.5634 10.6203C59.6159 11.0773 59.64 11.6319 59.5833 12.2567C59.4897 13.2882 59.2112 14.1234 58.9603 14.7073C59.0357 14.5032 59.6179 12.8553 58.7163 11.712C58.5871 11.5483 58.4015 11.3619 58.1336 11.1951C58.1569 11.0707 58.1768 10.9368 58.1909 10.7942C58.2176 10.5252 58.2185 10.2794 58.2062 10.0636L58.2062 10.0636Z" fill="#969696"/>
<path d="M57.215 9.43427C57.359 9.12284 57.5942 8.70336 57.9739 8.27934C58.4273 7.77309 58.9032 7.46501 59.2331 7.28674C59.3729 7.58354 59.5304 8.00146 59.6098 8.51986C59.7193 9.23581 59.6323 9.83285 59.546 10.2089C59.4942 9.70095 59.1675 9.264 58.7014 9.08145C58.1901 8.88121 57.5972 9.02079 57.215 9.43427Z" fill="#969696"/>
<path d="M50.576 9.89266C50.5249 9.55797 50.4902 9.08208 50.575 8.52325C50.6778 7.84544 50.914 7.32561 51.0943 7C51.3784 7.18241 51.7418 7.4583 52.0949 7.86041C52.5596 8.38976 52.8152 8.92008 52.9557 9.28394C52.6023 8.8138 51.9944 8.62126 51.4597 8.80221C50.9892 8.9614 50.6461 9.38568 50.576 9.89266H50.576Z" fill="#969696"/>
<path d="M54.0476 23.2789C53.1419 24.3582 52.7409 25.4414 52.559 26.0698C53.0422 25.2115 54.4078 23.0509 56.5099 22.8617C56.6558 22.8486 56.8075 22.8447 56.9648 22.8522C56.8618 22.5629 56.7631 22.2489 56.6747 21.9112C56.6222 21.7105 56.5772 21.5158 56.5384 21.328C55.951 21.6163 54.9536 22.1992 54.0476 23.2789V23.2789Z" fill="#969696"/>
<path d="M52.242 21.1156C52.0001 22.1968 51.8358 23.5326 51.9501 25.0459C51.9795 25.4343 52.0249 25.8044 52.0817 26.1548C52.172 25.8304 52.2748 25.4935 52.392 25.1459C52.5518 24.6718 52.7214 24.2287 52.8939 23.8175C52.6766 22.9168 52.4593 22.0162 52.242 21.1156V21.1156Z" fill="#969696"/>
<path d="M52.9771 18.2523C52.3471 17.1055 51.7171 15.9586 51.0872 14.8118C51.4082 15.4017 51.7813 15.7289 52.0466 15.9135C53.6938 17.0598 56.1478 16.1664 57.4212 15.7013C58.0632 15.4668 58.5586 15.2205 58.8456 15.0688C58.1427 16.1726 57.4398 17.2764 56.7369 18.3802C56.3138 18.5111 55.6626 18.6589 54.8611 18.6337C54.0446 18.6081 53.3938 18.413 52.977 18.2523H52.9771Z" fill="#CECECE"/>
<path d="M53.9238 9.54299C53.9945 9.76859 54.0827 10.1591 54.0159 10.6354C53.9938 10.7937 53.9517 11.1567 53.7104 11.5224C53.5214 11.8088 53.3754 11.9009 53.0313 12.2382C52.8326 12.4329 52.5611 12.7209 52.2682 13.1103C52.5986 13.2382 52.9856 13.354 53.4241 13.4261C54.9094 13.6702 56.1478 13.2748 56.8194 12.9942C56.9111 12.8736 57.0027 12.7531 57.0944 12.6325C56.4614 12.2812 55.6184 11.71 54.8319 10.8075C54.4471 10.366 54.1511 9.93159 53.9238 9.54297L53.9238 9.54299Z" fill="#CECECE"/>
<path d="M54.0227 21.0439C53.2809 21.5102 52.3907 21.1751 52.2419 21.1165C52.2357 21.4488 52.2361 21.7901 52.2439 22.1398C52.2663 23.1386 52.3473 24.0736 52.4641 24.9367C52.7765 24.0347 53.2157 23.018 53.8421 21.9599C54.0762 21.5645 54.316 21.1979 54.5554 20.8593C54.5087 20.8032 54.462 20.7471 54.4153 20.691C54.3164 20.8146 54.1882 20.9398 54.0227 21.0439Z" fill="#CECECE"/>
<path d="M52.559 26.0692C52.7652 25.4123 53.2004 24.319 54.1319 23.2333C55.003 22.2182 55.9412 21.6371 56.5384 21.3274C56.4626 20.9454 56.4008 20.5188 56.3689 20.0529C56.3523 19.811 56.3452 19.5796 56.3453 19.3599C55.7555 19.9722 55.1054 20.7478 54.4897 21.7042C53.4369 23.3393 52.8735 24.8987 52.559 26.0692V26.0692Z" fill="#CECECE"/>
<path d="M51.1001 7C50.999 7.17377 50.8947 7.38157 50.8032 7.62272C50.6547 8.01397 50.5864 8.37044 50.5549 8.65309C50.5701 8.56943 50.6537 8.15513 51.0123 7.94258C51.4212 7.70023 52.0261 7.81598 52.4263 8.27177C52.2312 8.00077 51.9653 7.68685 51.6093 7.3824C51.4338 7.23228 51.2617 7.10604 51.1001 7H51.1001Z" fill="#D0D0D0"/>
<path d="M59.233 7.28674C59.324 7.46418 59.4171 7.67943 59.4929 7.9305C59.6176 8.34365 59.6527 8.71279 59.6565 8.99358C59.6503 8.92057 59.605 8.4684 59.24 8.22011C58.8474 7.95301 58.242 8.02862 57.8246 8.45245C58.0225 8.20909 58.2947 7.92362 58.6575 7.65322C58.8591 7.50294 59.0544 7.38284 59.233 7.28674H59.233Z" fill="#D0D0D0"/>
<path d="M56.7369 18.38C57.2644 17.5516 57.7919 16.7233 58.3193 15.8949C57.8522 16.4072 56.8968 17.3118 55.4028 17.8422C54.434 18.1861 53.5709 18.2547 52.977 18.2521C53.42 18.4218 54.1227 18.629 55.003 18.635C55.7276 18.64 56.3242 18.5069 56.7369 18.38Z" fill="#969696"/>
<g filter="url(#filter2_i_0_1)">
<path d="M1 17.4062C1 8.34533 8.34533 1 17.4062 1H54.5938C63.6547 1 71 8.34533 71 17.4062C71 26.4672 63.6547 33.8125 54.5938 33.8125H17.4062C8.34533 33.8125 1 26.4672 1 17.4062Z" fill="#242424"/>
</g>
<path d="M1 17.4062C1 8.34533 8.34533 1 17.4062 1H54.5938C63.6547 1 71 8.34533 71 17.4062C71 26.4672 63.6547 33.8125 54.5938 33.8125H17.4062C8.34533 33.8125 1 26.4672 1 17.4062Z" stroke="#E0E0E0"/>
<g filter="url(#filter3_d_0_1)">
<path d="M5 17.2188C5 9.36595 11.366 3 19.2188 3C27.0715 3 33.4375 9.36595 33.4375 17.2188C33.4375 25.0715 27.0715 31.4375 19.2188 31.4375C11.366 31.4375 5 25.0715 5 17.2188Z" fill="#FF3D00"/>
</g>
<path d="M26.5 22.7043C26.357 22.7043 26.2409 22.8204 26.2409 22.9635V23.7409C26.2409 23.8839 26.357 24 26.5 24C26.643 24 26.7591 23.8839 26.7591 23.7409V22.9635C26.7591 22.8204 26.643 22.7043 26.5 22.7043ZM26.5 17C26.357 17 26.2409 17.1161 26.2409 17.2591V18.0365C26.2409 18.1796 26.357 18.2957 26.5 18.2957C26.643 18.2957 26.7591 18.1796 26.7591 18.0365V17.2591C26.7591 17.1161 26.643 17 26.5 17ZM24.2957 20.5C24.2957 20.357 24.1796 20.2409 24.0365 20.2409H23.2591C23.1161 20.2409 23 20.357 23 20.5C23 20.643 23.1161 20.7591 23.2591 20.7591H24.0365C24.1796 20.7591 24.2957 20.643 24.2957 20.5ZM29.7409 20.2409H28.9635C28.8204 20.2409 28.7043 20.357 28.7043 20.5C28.7043 20.643 28.8204 20.7591 28.9635 20.7591H29.7409C29.8839 20.7591 30 20.643 30 20.5C30 20.357 29.8839 20.2409 29.7409 20.2409ZM24.7584 21.9825C24.6894 21.9825 24.6238 22.0094 24.575 22.0582L24.0248 22.6084C23.976 22.6572 23.949 22.7228 23.949 22.7918C23.949 22.8608 23.976 22.9264 24.0248 22.9752C24.0736 23.024 24.1392 23.051 24.2082 23.051C24.2772 23.051 24.3428 23.024 24.3916 22.9752L24.9418 22.425C25.0428 22.324 25.0428 22.1591 24.9418 22.0582C24.893 22.0094 24.8274 21.9825 24.7584 21.9825ZM28.2416 19.0175C28.3106 19.0175 28.3762 18.9906 28.425 18.9418L28.9752 18.3916C29.024 18.3428 29.051 18.2772 29.051 18.2082C29.051 18.1392 29.024 18.0736 28.9752 18.0248C28.9264 17.976 28.8608 17.949 28.7918 17.949C28.7228 17.949 28.6572 17.976 28.6084 18.0248L28.0582 18.575C28.0094 18.6238 27.9825 18.6894 27.9825 18.7584C27.9825 18.8274 28.0094 18.893 28.0582 18.9418C28.107 18.9906 28.1726 19.0175 28.2416 19.0175ZM24.3916 18.0248C24.3428 17.976 24.2772 17.949 24.2082 17.949C24.1392 17.949 24.0736 17.976 24.0248 18.0248C23.976 18.0736 23.949 18.1392 23.949 18.2082C23.949 18.2772 23.976 18.3428 24.0248 18.3916L24.575 18.9418C24.6238 18.9906 24.6894 19.0175 24.7584 19.0175C24.8274 19.0175 24.893 18.9906 24.9418 18.9418C24.9906 18.893 25.0175 18.8274 25.0175 18.7584C25.0175 18.6894 24.9906 18.6238 24.9418 18.575L24.3916 18.0248ZM28.425 22.0582C28.3762 22.0094 28.3106 21.9825 28.2416 21.9825C28.1726 21.9825 28.107 22.0094 28.0582 22.0582C27.9572 22.1591 27.9572 22.324 28.0582 22.425L28.6084 22.9752C28.6572 23.024 28.7228 23.051 28.7918 23.051C28.8608 23.051 28.9264 23.024 28.9752 22.9752C29.024 22.9264 29.051 22.8608 29.051 22.7918C29.051 22.7228 29.024 22.6572 28.9752 22.6084L28.425 22.0582ZM26.5 18.8846C25.6099 18.8846 24.8846 19.6099 24.8846 20.5C24.8846 21.3901 25.6099 22.1154 26.5 22.1154C27.3901 22.1154 28.1154 21.3901 28.1154 20.5C28.1154 19.6099 27.3901 18.8846 26.5 18.8846Z" fill="white"/>
<path d="M11.0473 9.43604C10.4809 10.2546 9.64281 11.6901 9.23618 13.6611C8.89611 15.3095 8.9861 16.7104 9.11843 17.6273C10.0068 18.2754 10.7313 18.4063 11.2191 18.4113C12.3568 18.423 13.6469 17.7644 14.8806 17.7345C15.1358 17.7284 15.3987 17.7363 15.3987 17.7363C15.935 17.7524 16.3819 17.8101 16.7058 17.8643C16.4209 17.7839 11.9152 16.4377 10.986 12.5384C10.6947 11.316 10.844 10.2166 11.0473 9.43604Z" fill="#CECECE"/>
<path d="M9.21112 18.1888C9.41529 19.157 9.87188 20.6445 10.9804 22.1142C13.3143 25.2084 16.7685 25.8778 17.6785 26.025C17.5261 25.1568 17.4041 23.9144 17.5791 22.4419C17.7549 20.9621 18.1679 19.778 18.5213 18.968C16.9258 18.1403 15.6748 18.0534 14.814 18.1356C13.1949 18.2901 12.028 19.1307 10.323 18.6675C9.82852 18.5332 9.44916 18.3328 9.21114 18.1888L9.21112 18.1888Z" fill="#CECECE"/>
<path d="M11.5792 22.8312C12.3266 22.8073 13.3797 22.6795 14.5379 22.2119C16.7621 21.3141 18.0121 19.7129 18.5214 18.9679C18.3363 19.391 18.1632 19.8523 18.0141 20.3517C17.3506 22.5738 17.4489 24.5913 17.6785 26.0249C16.1951 25.7652 14.146 25.1455 12.337 23.5675C12.0602 23.3261 11.8084 23.0791 11.5792 22.8312Z" fill="#D0D0D0"/>
<path d="M11.0474 9.43604C10.617 10.0576 10.1301 10.8903 9.73805 11.9317C9.15208 13.488 9.01543 14.8795 9.00116 15.8326C9.23982 15.5906 9.48041 15.4383 9.69193 15.3396C11.3653 14.5585 13.3729 16.1213 13.524 16.2422C13.062 15.904 11.3368 14.5571 10.9113 12.1772C10.7035 11.0149 10.8823 10.035 11.0474 9.43606L11.0474 9.43604Z" fill="white"/>
<path d="M9.21114 18.1884C9.68643 18.7273 10.7119 19.7297 12.328 20.2052C15.5009 21.1387 18.1749 19.2243 18.5213 18.9675C18.0823 19.6252 17.0944 20.9129 15.345 21.835C13.7897 22.6549 12.3544 22.8053 11.5791 22.8309C11.1335 22.3437 10.5799 21.6398 10.0979 20.7037C9.59942 19.7356 9.34642 18.8476 9.21112 18.1884H9.21114Z" fill="#969696"/>
<path d="M17.0942 7C16.9102 7.33244 16.6686 7.86615 16.5691 8.56217C16.492 9.10132 16.5254 9.56209 16.5759 9.89266C16.9166 9.76932 17.2934 9.6494 17.7043 9.54264C18.1511 9.42652 18.571 9.34344 18.9555 9.28394C18.8318 8.96274 18.6259 8.53148 18.2803 8.08533C17.8643 7.54814 17.4126 7.20456 17.0941 7H17.0942Z" fill="#CECECE"/>
<path d="M25.2331 7.28674C24.923 7.45397 24.4849 7.73561 24.0569 8.18909C23.6217 8.65011 23.3638 9.11191 23.215 9.43427C23.5817 9.51803 23.9801 9.62608 24.4021 9.76642C24.8217 9.90599 25.2036 10.0572 25.546 10.2089C25.6249 9.86847 25.705 9.34228 25.6346 8.70602C25.566 8.08526 25.3806 7.59916 25.2331 7.28674H25.2331Z" fill="#CECECE"/>
<path d="M16.5536 10.3568C16.5019 10.9021 16.4825 11.5748 16.5596 12.338C16.6417 13.1515 16.8109 13.8446 16.9839 14.3901C17.4464 13.2956 18.0188 12.6114 18.4798 12.1788C18.9003 11.7841 19.3657 11.4697 19.5563 10.8425C19.7028 10.3608 19.6239 9.90301 19.5276 9.5802C19.1342 9.62102 18.6939 9.68991 18.2196 9.8031C17.5737 9.95723 17.0155 10.1575 16.5536 10.3568Z" fill="#7C7C7C"/>
<path d="M19.9238 9.5428C19.9858 9.75103 20.0604 10.0958 20.0214 10.5199C20.0065 10.6815 19.9703 11.0385 19.7677 11.4216C19.5118 11.9056 19.2406 11.9578 18.6217 12.6717C18.4629 12.8548 18.3423 13.0111 18.2682 13.1101C19.169 13.5622 20.0699 14.0144 20.9707 14.4665C21.4068 14.235 23.4073 13.1167 23.7559 11.0315C23.8063 10.7305 23.8291 10.3679 23.7812 9.95149C23.2115 9.78507 22.5059 9.62918 21.6887 9.55643C21.0266 9.49751 20.4312 9.50561 19.9238 9.54284L19.9238 9.5428Z" fill="white"/>
<path d="M25.5635 10.6203C25.5991 10.9228 25.6199 11.2501 25.6171 11.5994C25.6069 12.8837 25.2818 13.9487 24.9604 14.7073C24.959 14.6469 24.9298 13.9459 24.3152 13.5461C23.729 13.1647 23.1094 13.3822 23.0432 13.4068C23.2904 13.13 23.6125 12.7033 23.8575 12.1181C24.2157 11.2627 24.2308 10.4947 24.2063 10.0636C24.6587 10.2492 25.1111 10.4347 25.5635 10.6203V10.6203Z" fill="#CECECE"/>
<path d="M17.0872 14.8118C17.7171 15.9586 18.3471 17.1055 18.9771 18.2523C19.3884 18.4109 20.0174 18.5991 20.8032 18.6318C21.6323 18.6662 22.3053 18.5137 22.737 18.3802C23.4408 17.2754 24.1446 16.1706 24.8485 15.0658C24.6192 15.1278 24.3186 15.1973 23.9622 15.2484C23.6616 15.2915 23.2934 15.3254 22.8101 15.3233C21.8487 15.3189 21.7985 15.1777 20.9026 15.1479C20.0962 15.1211 20.0921 15.2339 19.1761 15.189C18.6305 15.1623 18.2196 15.102 17.8512 15.0217C17.5398 14.9537 17.2802 14.8761 17.0872 14.8118L17.0872 14.8118Z" fill="white"/>
<path d="M18.9651 18.9478C19.4952 19.5846 20.0253 20.2215 20.5554 20.8584C20.0639 21.5546 19.524 22.4335 19.0364 23.4958C18.588 24.4728 18.2872 25.3795 18.0816 26.1548C17.8673 24.8128 17.7568 22.8741 18.3481 20.6954C18.5235 20.0493 18.7377 19.4662 18.9651 18.9478L18.9651 18.9478Z" fill="white"/>
<path d="M22.3453 19.3599C21.6739 20.0568 20.8742 21.018 20.1425 22.2696C19.3008 23.7092 18.8309 25.0506 18.559 26.0692C19.558 26.2359 20.3783 26.2172 20.9413 26.1678C21.8684 26.0865 22.2477 25.9088 22.5214 25.7131C22.6378 25.6299 22.996 25.3737 23.198 24.9545C23.6322 24.0533 22.9516 23.2136 22.573 21.4919C22.4649 21.0005 22.346 20.2758 22.3453 19.3599H22.3453Z" fill="#D0D0D0"/>
<path d="M20.5469 14.9086C20.3157 14.7546 20.0012 14.5532 19.6171 14.3312C19.4112 14.2123 19.2495 14.1244 19.073 14.0287C18.8126 13.8874 18.472 13.7071 18.0657 13.5038C18.0095 13.6164 17.9168 13.8397 17.9184 14.1342C17.9197 14.3925 17.9929 14.5922 18.0433 14.7032C18.3571 14.6915 18.698 14.6928 19.062 14.7143C19.6138 14.747 20.1119 14.82 20.547 14.9086L20.5469 14.9086Z" fill="white"/>
<path d="M21.3286 14.9356C21.7704 14.684 22.2552 14.4309 22.7826 14.1869C23.1626 14.011 23.531 13.8555 23.8847 13.7177C23.9334 13.8339 24.0161 14.0763 23.9827 14.3851C23.9565 14.6262 23.8704 14.8074 23.8111 14.9108C23.4979 14.8751 23.1545 14.8508 22.7848 14.8466C22.2447 14.8405 21.7555 14.8784 21.3286 14.9356Z" fill="white"/>
<path d="M19.463 18.8531C19.8193 18.9444 20.2775 19.0285 20.814 19.0469C21.3569 19.0655 21.8245 19.0114 22.1887 18.9434C21.7138 19.4502 21.2389 19.9569 20.764 20.4636C20.3303 19.9268 19.8966 19.39 19.463 18.8531Z" fill="white"/>
<path d="M21.3187 14.9373C21.5604 14.8003 21.8886 14.6221 22.2877 14.4283C22.5016 14.3244 22.6692 14.2484 22.8521 14.1657C23.122 14.0435 23.4747 13.8882 23.8946 13.7146C23.9426 13.8309 24.0189 14.0603 23.9962 14.3539C23.9763 14.6116 23.8889 14.8054 23.8307 14.9125C23.5185 14.8782 23.1784 14.855 22.8138 14.8503C22.2611 14.8432 21.759 14.8802 21.3187 14.9373L21.3187 14.9373Z" fill="white"/>
<path d="M16.9839 14.3901C16.7309 13.5371 16.5243 12.486 16.5129 11.2807C16.5099 10.9565 16.5212 10.6463 16.5432 10.3517C16.9946 10.1608 17.5349 9.9694 18.1564 9.81842C18.6552 9.69725 19.117 9.62378 19.5277 9.5802C19.4425 9.76331 19.2957 10.0446 19.0611 10.348C18.3819 11.2259 17.7105 11.3274 17.2709 11.8444C16.9442 12.2286 16.6607 12.9419 16.9839 14.3901L16.9839 14.3901Z" fill="#969696"/>
<path d="M23.0942 12.6323C22.7032 12.5437 22.0361 12.3362 21.3806 11.8108C20.3613 10.9938 20.0267 9.93508 19.9236 9.54282C20.4517 9.50407 21.0819 9.49643 21.7874 9.56571C22.5643 9.64199 23.2361 9.79224 23.781 9.95147C23.813 10.2345 23.8243 10.6075 23.7522 11.0347C23.6265 11.7804 23.3086 12.3253 23.0942 12.6323V12.6323Z" fill="#969696"/>
<path d="M24.2062 10.0636C24.6586 10.2492 25.111 10.4347 25.5634 10.6203C25.6159 11.0773 25.64 11.6319 25.5833 12.2567C25.4897 13.2882 25.2112 14.1234 24.9603 14.7073C25.0357 14.5032 25.6179 12.8553 24.7163 11.712C24.5871 11.5483 24.4015 11.3619 24.1336 11.1951C24.1569 11.0707 24.1768 10.9368 24.1909 10.7942C24.2176 10.5252 24.2185 10.2794 24.2062 10.0636L24.2062 10.0636Z" fill="#969696"/>
<path d="M23.215 9.43427C23.359 9.12284 23.5942 8.70336 23.9739 8.27934C24.4273 7.77309 24.9032 7.46501 25.2331 7.28674C25.3729 7.58354 25.5304 8.00146 25.6098 8.51986C25.7193 9.23581 25.6323 9.83285 25.546 10.2089C25.4942 9.70095 25.1675 9.264 24.7014 9.08145C24.1901 8.88121 23.5972 9.02079 23.215 9.43427Z" fill="#969696"/>
<path d="M16.576 9.89266C16.5249 9.55797 16.4902 9.08208 16.575 8.52325C16.6778 7.84544 16.914 7.32561 17.0943 7C17.3784 7.18241 17.7418 7.4583 18.0949 7.86041C18.5596 8.38976 18.8152 8.92008 18.9557 9.28394C18.6023 8.8138 17.9944 8.62126 17.4597 8.80221C16.9892 8.9614 16.6461 9.38568 16.576 9.89266H16.576Z" fill="#969696"/>
<path d="M20.0476 23.2789C19.1419 24.3582 18.7409 25.4414 18.559 26.0698C19.0422 25.2115 20.4078 23.0509 22.5099 22.8617C22.6558 22.8486 22.8075 22.8447 22.9648 22.8522C22.8618 22.5629 22.7631 22.2489 22.6747 21.9112C22.6222 21.7105 22.5772 21.5158 22.5384 21.328C21.951 21.6163 20.9536 22.1992 20.0476 23.2789V23.2789Z" fill="#969696"/>
<path d="M18.242 21.1156C18.0001 22.1968 17.8358 23.5326 17.9501 25.0459C17.9795 25.4343 18.0249 25.8044 18.0817 26.1548C18.172 25.8304 18.2748 25.4935 18.392 25.1459C18.5518 24.6718 18.7214 24.2287 18.8939 23.8175C18.6766 22.9168 18.4593 22.0162 18.242 21.1156V21.1156Z" fill="#969696"/>
<path d="M18.9771 18.2523C18.3471 17.1055 17.7171 15.9586 17.0872 14.8118C17.4082 15.4017 17.7813 15.7289 18.0466 15.9135C19.6938 17.0598 22.1478 16.1664 23.4212 15.7013C24.0632 15.4668 24.5586 15.2205 24.8456 15.0688C24.1427 16.1726 23.4398 17.2764 22.7369 18.3802C22.3138 18.5111 21.6626 18.6589 20.8611 18.6337C20.0446 18.6081 19.3938 18.413 18.977 18.2523H18.9771Z" fill="#CECECE"/>
<path d="M19.9238 9.54299C19.9945 9.76859 20.0827 10.1591 20.0159 10.6354C19.9938 10.7937 19.9517 11.1567 19.7104 11.5224C19.5214 11.8088 19.3754 11.9009 19.0313 12.2382C18.8326 12.4329 18.5611 12.7209 18.2682 13.1103C18.5986 13.2382 18.9856 13.354 19.4241 13.4261C20.9094 13.6702 22.1478 13.2748 22.8194 12.9942C22.9111 12.8736 23.0027 12.7531 23.0944 12.6325C22.4614 12.2812 21.6184 11.71 20.8319 10.8075C20.4471 10.366 20.1511 9.93159 19.9238 9.54297L19.9238 9.54299Z" fill="#CECECE"/>
<path d="M20.0227 21.0439C19.2809 21.5102 18.3907 21.1751 18.2419 21.1165C18.2357 21.4488 18.2361 21.7901 18.2439 22.1398C18.2663 23.1386 18.3473 24.0736 18.4641 24.9367C18.7765 24.0347 19.2157 23.018 19.8421 21.9599C20.0762 21.5645 20.316 21.1979 20.5554 20.8593C20.5087 20.8032 20.462 20.7471 20.4153 20.691C20.3164 20.8146 20.1882 20.9398 20.0227 21.0439Z" fill="#CECECE"/>
<path d="M18.559 26.0692C18.7652 25.4123 19.2004 24.319 20.1319 23.2333C21.003 22.2182 21.9412 21.6371 22.5384 21.3274C22.4626 20.9454 22.4008 20.5188 22.3689 20.0529C22.3523 19.811 22.3452 19.5796 22.3453 19.3599C21.7555 19.9722 21.1054 20.7478 20.4897 21.7042C19.4369 23.3393 18.8735 24.8987 18.559 26.0692V26.0692Z" fill="#CECECE"/>
<path d="M17.1001 7C16.999 7.17377 16.8947 7.38157 16.8032 7.62272C16.6547 8.01397 16.5864 8.37044 16.5549 8.65309C16.5701 8.56943 16.6537 8.15513 17.0123 7.94258C17.4212 7.70023 18.0261 7.81598 18.4263 8.27177C18.2312 8.00077 17.9653 7.68685 17.6093 7.3824C17.4338 7.23228 17.2617 7.10604 17.1001 7H17.1001Z" fill="#D0D0D0"/>
<path d="M25.233 7.28674C25.324 7.46418 25.4171 7.67943 25.4929 7.9305C25.6176 8.34365 25.6527 8.71279 25.6565 8.99358C25.6503 8.92057 25.605 8.4684 25.24 8.22011C24.8474 7.95301 24.242 8.02862 23.8246 8.45245C24.0225 8.20909 24.2947 7.92362 24.6575 7.65322C24.8591 7.50294 25.0544 7.38284 25.233 7.28674H25.233Z" fill="#D0D0D0"/>
<path d="M22.7369 18.38C23.2644 17.5516 23.7919 16.7233 24.3193 15.8949C23.8522 16.4072 22.8968 17.3118 21.4028 17.8422C20.434 18.1861 19.5709 18.2547 18.977 18.2521C19.42 18.4218 20.1227 18.629 21.003 18.635C21.7276 18.64 22.3242 18.5069 22.7369 18.38Z" fill="#969696"/>
<defs>
<filter id="filter0_i_0_1" x="0.5" y="0.5" width="73" height="34.8125" filterUnits="userSpaceOnUse" color-interpolation-filters="sRGB">
<feFlood flood-opacity="0" result="BackgroundImageFix"/>
<feBlend mode="normal" in="SourceGraphic" in2="BackgroundImageFix" result="shape"/>
<feColorMatrix in="SourceAlpha" type="matrix" values="0 0 0 0 0 0 0 0 0 0 0 0 0 0 0 0 0 0 127 0" result="hardAlpha"/>
<feOffset dx="3" dy="1"/>
<feGaussianBlur stdDeviation="1"/>
<feComposite in2="hardAlpha" operator="arithmetic" k2="-1" k3="1"/>
<feColorMatrix type="matrix" values="0 0 0 0 0.779167 0 0 0 0 0.779167 0 0 0 0 0.779167 0 0 0 0.25 0"/>
<feBlend mode="normal" in2="shape" result="effect1_innerShadow_0_1"/>
</filter>
<filter id="filter1_d_0_1" x="34.5625" y="2" width="36.4375" height="36.4375" filterUnits="userSpaceOnUse" color-interpolation-filters="sRGB">
<feFlood flood-opacity="0" result="BackgroundImageFix"/>
<feColorMatrix in="SourceAlpha" type="matrix" values="0 0 0 0 0 0 0 0 0 0 0 0 0 0 0 0 0 0 127 0" result="hardAlpha"/>
<feOffset dy="3"/>
<feGaussianBlur stdDeviation="2"/>
<feColorMatrix type="matrix" values="0 0 0 0 0.14 0 0 0 0 0 0 0 0 0 1 0 0 0 0.6 0"/>
<feBlend mode="normal" in2="BackgroundImageFix" result="effect1_dropShadow_0_1"/>
<feBlend mode="normal" in="SourceGraphic" in2="effect1_dropShadow_0_1" result="shape"/>
</filter>
<filter id="filter2_i_0_1" x="0.5" y="0.5" width="73" height="34.8125" filterUnits="userSpaceOnUse" color-interpolation-filters="sRGB">
<feFlood flood-opacity="0" result="BackgroundImageFix"/>
<feBlend mode="normal" in="SourceGraphic" in2="BackgroundImageFix" result="shape"/>
<feColorMatrix in="SourceAlpha" type="matrix" values="0 0 0 0 0 0 0 0 0 0 0 0 0 0 0 0 0 0 127 0" result="hardAlpha"/>
<feOffset dx="3" dy="1"/>
<feGaussianBlur stdDeviation="1"/>
<feComposite in2="hardAlpha" operator="arithmetic" k2="-1" k3="1"/>
<feColorMatrix type="matrix" values="0 0 0 0 0.779167 0 0 0 0 0.779167 0 0 0 0 0.779167 0 0 0 0.25 0"/>
<feBlend mode="normal" in2="shape" result="effect1_innerShadow_0_1"/>
</filter>
<filter id="filter3_d_0_1" x="1" y="2" width="36.4375" height="36.4375" filterUnits="userSpaceOnUse" color-interpolation-filters="sRGB">
<feFlood flood-opacity="0" result="BackgroundImageFix"/>
<feColorMatrix in="SourceAlpha" type="matrix" values="0 0 0 0 0 0 0 0 0 0 0 0 0 0 0 0 0 0 127 0" result="hardAlpha"/>
<feOffset dy="3"/>
<feGaussianBlur stdDeviation="2"/>
<feColorMatrix type="matrix" values="0 0 0 0 1 0 0 0 0 0.239216 0 0 0 0 0 0 0 0 0.6 0"/>
<feBlend mode="normal" in2="BackgroundImageFix" result="effect1_dropShadow_0_1"/>
<feBlend mode="normal" in="SourceGraphic" in2="effect1_dropShadow_0_1" result="shape"/>
</filter>
<clipPath id="clip0_0_1">
<rect width="6" height="6" fill="white" transform="translate(57 17)"/>
</clipPath>
</defs>
</svg>
