<svg width="17" height="20" viewBox="0 0 17 20" fill="none" xmlns="http://www.w3.org/2000/svg">
<path d="M2.04734 2.43604C1.48087 3.25464 0.642812 4.69015 0.236182 6.66114C-0.103891 8.3095 -0.0139021 9.71038 0.118431 10.6273C1.00677 11.2754 1.73132 11.4063 2.21905 11.4113C3.35677 11.423 4.64687 10.7644 5.8806 10.7345C6.13578 10.7284 6.39865 10.7363 6.39865 10.7363C6.935 10.7524 7.38191 10.8101 7.70581 10.8643C7.42093 10.7839 2.9152 9.43774 1.986 5.53837C1.69471 4.316 1.84396 3.21661 2.04734 2.43604Z" fill="#CECECE"/>
<path d="M0.211121 11.1888C0.415292 12.157 0.871877 13.6445 1.98041 15.1142C4.31426 18.2084 7.76849 18.8778 8.67849 19.025C8.5261 18.1568 8.40409 16.9144 8.57907 15.4419C8.75488 13.9621 9.16787 12.778 9.52135 11.968C7.92582 11.1403 6.67483 11.0534 5.81396 11.1356C4.19489 11.2901 3.028 12.1307 1.32302 11.6675C0.828523 11.5332 0.449159 11.3328 0.211141 11.1888L0.211121 11.1888Z" fill="#CECECE"/>
<path d="M2.57916 15.8312C3.32659 15.8073 4.37966 15.6795 5.53786 15.2119C7.76207 14.3141 9.01207 12.7129 9.52138 11.9679C9.33633 12.391 9.16318 12.8523 9.01408 13.3517C8.3506 15.5738 8.44888 17.5913 8.67852 19.0249C7.19508 18.7652 5.14604 18.1455 3.33696 16.5675C3.06021 16.3261 2.80837 16.0791 2.57916 15.8312Z" fill="#D0D0D0"/>
<path d="M2.04741 2.43604C1.61704 3.05756 1.13011 3.89031 0.738045 4.93165C0.152076 6.48799 0.0154325 7.8795 0.00115967 8.83261C0.239817 8.59057 0.480413 8.43831 0.691927 8.3396C2.36527 7.55851 4.37291 9.12134 4.52403 9.24225C4.06202 8.90401 2.33681 7.55709 1.91132 5.17718C1.70352 4.01489 1.88234 3.03496 2.04743 2.43606L2.04741 2.43604Z" fill="white"/>
<path d="M0.211141 11.1884C0.686434 11.7273 1.71189 12.7297 3.328 13.2052C6.50089 14.1387 9.17486 12.2243 9.52132 11.9675C9.08231 12.6252 8.09439 13.9129 6.34499 14.835C4.7897 15.6549 3.35438 15.8053 2.57911 15.8309C2.13347 15.3437 1.57995 14.6398 1.09789 13.7037C0.599415 12.7356 0.346424 11.8476 0.211121 11.1884H0.211141Z" fill="#969696"/>
<path d="M8.09415 0C7.91022 0.332441 7.66857 0.866145 7.56907 1.56217C7.49202 2.10132 7.52539 2.56209 7.57586 2.89266C7.91657 2.76932 8.29344 2.6494 8.70426 2.54264C9.15113 2.42652 9.57096 2.34344 9.95548 2.28394C9.83185 1.96274 9.62588 1.53148 9.2803 1.08533C8.86427 0.548142 8.41257 0.204563 8.09413 0L8.09415 0Z" fill="#CECECE"/>
<path d="M16.2331 0.286743C15.923 0.453974 15.4849 0.735615 15.0569 1.18909C14.6217 1.65011 14.3638 2.11191 14.215 2.43427C14.5817 2.51803 14.9801 2.62608 15.4021 2.76642C15.8217 2.90599 16.2036 3.0572 16.546 3.20887C16.6249 2.86847 16.705 2.34228 16.6346 1.70602C16.566 1.08526 16.3806 0.599157 16.2331 0.286743H16.2331Z" fill="#CECECE"/>
<path d="M7.55363 3.35677C7.5019 3.90209 7.48251 4.57476 7.55959 5.33797C7.6417 6.15146 7.81085 6.84457 7.98386 7.3901C8.44636 6.29561 9.01878 5.6114 9.47978 5.17876C9.90027 4.78413 10.3657 4.46972 10.5563 3.84254C10.7028 3.36081 10.6239 2.90301 10.5276 2.5802C10.1342 2.62102 9.69391 2.68991 9.21959 2.8031C8.5737 2.95723 8.01552 3.15751 7.55363 3.35677Z" fill="#7C7C7C"/>
<path d="M10.9238 2.5428C10.9858 2.75103 11.0604 3.09577 11.0214 3.51989C11.0065 3.68149 10.9703 4.03854 10.7677 4.42157C10.5118 4.90557 10.2406 4.95781 9.62169 5.67168C9.46291 5.85481 9.34228 6.01111 9.26819 6.11012C10.169 6.56225 11.0699 7.0144 11.9707 7.46655C12.4068 7.23505 14.4073 6.11674 14.7559 4.03148C14.8063 3.73048 14.8291 3.36788 14.7812 2.95149C14.2115 2.78507 13.5059 2.62918 12.6887 2.55643C12.0266 2.49751 11.4312 2.50561 10.9238 2.54284L10.9238 2.5428Z" fill="white"/>
<path d="M16.5635 3.62028C16.5991 3.92275 16.6199 4.25014 16.6171 4.59939C16.6069 5.8837 16.2818 6.94867 15.9604 7.70727C15.959 7.64686 15.9298 6.94595 15.3152 6.54612C14.729 6.16472 14.1094 6.38221 14.0432 6.40676C14.2904 6.13005 14.6125 5.70326 14.8575 5.11812C15.2157 4.26272 15.2308 3.49467 15.2063 3.0636C15.6587 3.24917 16.1111 3.43473 16.5635 3.6203V3.62028Z" fill="#CECECE"/>
<path d="M8.08716 7.81177C8.71712 8.95862 9.34708 10.1055 9.97707 11.2523C10.3884 11.4109 11.0174 11.5991 11.8032 11.6318C12.6323 11.6662 13.3053 11.5137 13.737 11.3802C14.4408 10.2754 15.1446 9.17061 15.8485 8.06583C15.6192 8.12781 15.3186 8.19732 14.9622 8.24839C14.6616 8.29147 14.2934 8.32542 13.8101 8.32326C12.8487 8.31893 12.7985 8.17772 11.9026 8.1479C11.0962 8.12109 11.0921 8.23395 10.1761 8.18903C9.63052 8.16228 9.21964 8.10203 8.85123 8.02167C8.53976 7.95371 8.28019 7.87608 8.08718 7.81179L8.08716 7.81177Z" fill="white"/>
<path d="M9.96507 11.9478C10.4952 12.5846 11.0253 13.2215 11.5554 13.8584C11.0639 14.5546 10.524 15.4335 10.0364 16.4958C9.58798 17.4728 9.28722 18.3795 9.08162 19.1548C8.86734 17.8128 8.75675 15.8741 9.3481 13.6954C9.52346 13.0493 9.73772 12.4662 9.96505 11.9478L9.96507 11.9478Z" fill="white"/>
<path d="M13.3453 12.3599C12.6739 13.0568 11.8742 14.018 11.1425 15.2696C10.3008 16.7092 9.83095 18.0506 9.55896 19.0692C10.558 19.2359 11.3783 19.2172 11.9413 19.1678C12.8684 19.0865 13.2477 18.9088 13.5214 18.7131C13.6378 18.6299 13.996 18.3737 14.198 17.9545C14.6322 17.0533 13.9516 16.2136 13.573 14.4919C13.4649 14.0005 13.346 13.2758 13.3453 12.3599H13.3453Z" fill="#D0D0D0"/>
<path d="M11.5469 7.9086C11.3157 7.75457 11.0012 7.55323 10.6171 7.33124C10.4112 7.21227 10.2495 7.12438 10.073 7.02868C9.81257 6.88744 9.47202 6.70713 9.0657 6.50378C9.0095 6.61636 8.91685 6.83967 8.91835 7.13418C8.91967 7.39253 8.99285 7.59219 9.04326 7.70322C9.35712 7.6915 9.69802 7.69276 10.062 7.71431C10.6138 7.747 11.1119 7.82002 11.547 7.90862L11.5469 7.9086Z" fill="white"/>
<path d="M12.3286 7.93563C12.7704 7.68399 13.2552 7.4309 13.7826 7.18686C14.1626 7.01105 14.531 6.85549 14.8847 6.71765C14.9334 6.8339 15.0161 7.07631 14.9827 7.38507C14.9565 7.62622 14.8704 7.80744 14.8111 7.91075C14.4979 7.87507 14.1545 7.85081 13.7848 7.84663C13.2447 7.84048 12.7555 7.87837 12.3286 7.93563Z" fill="white"/>
<path d="M10.463 11.8531C10.8193 11.9444 11.2775 12.0285 11.814 12.0469C12.3569 12.0655 12.8245 12.0114 13.1887 11.9434C12.7138 12.4502 12.2389 12.9569 11.764 13.4636C11.3303 12.9268 10.8966 12.39 10.463 11.8531Z" fill="white"/>
<path d="M12.3187 7.93726C12.5604 7.80028 12.8886 7.62208 13.2877 7.4283C13.5016 7.32443 13.6692 7.24841 13.8521 7.16568C14.122 7.04349 14.4747 6.88818 14.8946 6.7146C14.9426 6.83093 15.0189 7.0603 14.9962 7.35395C14.9763 7.61156 14.8889 7.8054 14.8307 7.91251C14.5185 7.87825 14.1784 7.85498 13.8138 7.8503C13.2611 7.84322 12.759 7.88021 12.3187 7.93728L12.3187 7.93726Z" fill="white"/>
<path d="M7.98388 7.39006C7.73091 6.53713 7.52426 5.48595 7.51294 4.28075C7.50989 3.95647 7.52123 3.64633 7.54322 3.35167C7.99459 3.16081 8.53487 2.9694 9.15636 2.81842C9.65516 2.69725 10.117 2.62378 10.5277 2.5802C10.4425 2.76331 10.2957 3.04464 10.0611 3.34796C9.38192 4.22588 8.71052 4.32742 8.27087 4.84442C7.94422 5.22857 7.6607 5.94186 7.9839 7.39008L7.98388 7.39006Z" fill="#969696"/>
<path d="M14.0942 5.63235C13.7032 5.54374 13.0361 5.33617 12.3806 4.81077C11.3613 3.99384 11.0267 2.93508 10.9236 2.54282C11.4517 2.50407 12.0819 2.49643 12.7874 2.56571C13.5643 2.64199 14.2361 2.79224 14.781 2.95147C14.813 3.23449 14.8243 3.60753 14.7522 4.03474C14.6265 4.78041 14.3086 5.32534 14.0942 5.63233V5.63235Z" fill="#969696"/>
<path d="M15.2062 3.0636C15.6586 3.24917 16.111 3.43473 16.5634 3.6203C16.6159 4.07734 16.64 4.63185 16.5833 5.25672C16.4897 6.28816 16.2112 7.12337 15.9603 7.70729C16.0357 7.50323 16.6179 5.85534 15.7163 4.71205C15.5871 4.54826 15.4015 4.36195 15.1336 4.19509C15.1569 4.0707 15.1768 3.93684 15.1909 3.79423C15.2176 3.52522 15.2185 3.2794 15.2062 3.06362L15.2062 3.0636Z" fill="#969696"/>
<path d="M14.215 2.43427C14.359 2.12284 14.5942 1.70336 14.9739 1.27934C15.4273 0.773091 15.9032 0.465009 16.2331 0.286743C16.3729 0.583543 16.5304 1.00146 16.6098 1.51986C16.7193 2.23581 16.6323 2.83285 16.546 3.20885C16.4942 2.70095 16.1675 2.264 15.7014 2.08145C15.1901 1.88121 14.5972 2.02079 14.215 2.43427Z" fill="#969696"/>
<path d="M7.57601 2.89266C7.5249 2.55797 7.49019 2.08208 7.57498 1.52325C7.67782 0.845437 7.914 0.325614 8.09431 0C8.37839 0.182411 8.74183 0.458297 9.09487 0.860411C9.55963 1.38976 9.8152 1.92008 9.95566 2.28394C9.60234 1.8138 8.99443 1.62126 8.45967 1.80221C7.98922 1.9614 7.64614 2.38568 7.57604 2.89266H7.57601Z" fill="#969696"/>
<path d="M11.0476 16.2789C10.1419 17.3582 9.74094 18.4414 9.55896 19.0698C10.0422 18.2115 11.4078 16.0509 13.5099 15.8617C13.6558 15.8486 13.8075 15.8447 13.9648 15.8522C13.8618 15.5629 13.7631 15.2489 13.6747 14.9112C13.6222 14.7105 13.5772 14.5158 13.5384 14.328C12.951 14.6163 11.9536 15.1992 11.0476 16.2789V16.2789Z" fill="#969696"/>
<path d="M9.242 14.1156C9.0001 15.1968 8.83578 16.5326 8.95011 18.0459C8.97948 18.4343 9.0249 18.8044 9.08172 19.1548C9.17204 18.8304 9.27481 18.4935 9.39197 18.1459C9.55181 17.6718 9.72136 17.2287 9.89395 16.8175C9.67662 15.9168 9.45931 15.0162 9.242 14.1156V14.1156Z" fill="#969696"/>
<path d="M9.97707 11.2523C9.3471 10.1055 8.71714 8.95863 8.08716 7.81177C8.40817 8.40172 8.78131 8.72886 9.04657 8.91346C10.6938 10.0598 13.1478 9.16636 14.4212 8.7013C15.0632 8.46681 15.5586 8.22054 15.8456 8.06882C15.1427 9.17261 14.4398 10.2764 13.7369 11.3802C13.3138 11.5111 12.6626 11.6589 11.8611 11.6337C11.0446 11.6081 10.3938 11.413 9.97705 11.2523H9.97707Z" fill="#CECECE"/>
<path d="M10.9238 2.54299C10.9945 2.76859 11.0827 3.15913 11.0159 3.63538C10.9938 3.79374 10.9517 4.15672 10.7104 4.52237C10.5214 4.8088 10.3754 4.90093 10.0313 5.2382C9.8326 5.43294 9.56111 5.72086 9.26819 6.11026C9.59865 6.23816 9.98556 6.35399 10.4241 6.42608C11.9094 6.67024 13.1478 6.27483 13.8194 5.99416C13.9111 5.87361 14.0027 5.75305 14.0944 5.63248C13.4614 5.2812 12.6184 4.71 11.8319 3.80752C11.4471 3.36601 11.1511 2.93159 10.9238 2.54297L10.9238 2.54299Z" fill="#CECECE"/>
<path d="M11.0227 14.0439C10.2809 14.5102 9.39066 14.1751 9.24189 14.1165C9.23574 14.4488 9.23605 14.7901 9.24391 15.1398C9.26635 16.1386 9.34728 17.0736 9.46409 17.9367C9.7765 17.0347 10.2157 16.018 10.8421 14.9599C11.0762 14.5645 11.316 14.1979 11.5554 13.8593C11.5087 13.8032 11.462 13.7471 11.4153 13.691C11.3164 13.8146 11.1882 13.9398 11.0227 14.0439Z" fill="#CECECE"/>
<path d="M9.55896 19.0692C9.76515 18.4123 10.2004 17.319 11.1319 16.2333C12.003 15.2182 12.9412 14.6371 13.5384 14.3274C13.4626 13.9454 13.4008 13.5188 13.3689 13.0529C13.3523 12.811 13.3452 12.5796 13.3453 12.3599C12.7555 12.9722 12.1054 13.7478 11.4897 14.7042C10.4369 16.3393 9.87352 17.8987 9.55896 19.0692V19.0692Z" fill="#CECECE"/>
<path d="M8.10015 0C7.99904 0.173769 7.89474 0.381571 7.80322 0.622724C7.65472 1.01397 7.58643 1.37044 7.55487 1.65309C7.57005 1.56943 7.65373 1.15513 8.01232 0.942583C8.42122 0.700234 9.0261 0.815984 9.42626 1.27177C9.23122 1.00077 8.96528 0.686848 8.60931 0.382396C8.43382 0.232284 8.26168 0.106035 8.10012 0L8.10015 0Z" fill="#D0D0D0"/>
<path d="M16.233 0.286743C16.324 0.464184 16.4171 0.679431 16.4929 0.930505C16.6176 1.34365 16.6527 1.71279 16.6565 1.99358C16.6503 1.92057 16.605 1.4684 16.24 1.22011C15.8474 0.953007 15.242 1.02862 14.8246 1.45245C15.0225 1.20909 15.2947 0.923616 15.6575 0.653216C15.8591 0.502939 16.0544 0.382837 16.233 0.286743H16.233Z" fill="#D0D0D0"/>
<path d="M13.7369 11.38C14.2644 10.5516 14.7919 9.72326 15.3193 8.8949C14.8522 9.40721 13.8968 10.3118 12.4028 10.8422C11.434 11.1861 10.5709 11.2547 9.97699 11.2521C10.42 11.4218 11.1227 11.629 12.003 11.635C12.7276 11.64 13.3242 11.5069 13.7369 11.38Z" fill="#969696"/>
</svg>
