<svg width="6" height="6" viewBox="0 0 6 6" fill="none" xmlns="http://www.w3.org/2000/svg">
<g clip-path="url(#clip0_1_722)">
<path d="M4.70391 4.15085C4.66992 4.15202 4.63594 4.1532 4.60195 4.1532C4.04062 4.1532 3.51211 3.93171 3.11602 3.52741C2.71875 3.12429 2.50078 2.58874 2.50078 2.01804C2.50078 1.69343 2.57227 1.37937 2.70586 1.09577C2.74219 1.01843 2.81484 0.901242 2.86523 0.821555C2.8875 0.787571 2.85937 0.743039 2.81953 0.750071C2.74922 0.760618 2.64141 0.784055 2.49492 0.829758C1.5832 1.11921 0.9375 1.97702 0.9375 2.98835C0.9375 4.23757 1.93477 5.25007 3.16523 5.25007C3.84492 5.25007 4.4543 4.9407 4.86328 4.45202C4.93359 4.36765 4.99805 4.2903 5.05547 4.19655C5.07656 4.1614 5.04727 4.11804 5.00742 4.12507C4.90781 4.14499 4.80703 4.14616 4.70391 4.15085Z" fill="white"/>
</g>
<defs>
<clipPath id="clip0_1_722">
<rect width="6" height="6" fill="white"/>
</clipPath>
</defs>
</svg>
