<svg width="7" height="7" viewBox="0 0 7 7" fill="none" xmlns="http://www.w3.org/2000/svg">
<path d="M3.5 5.70433C3.35697 5.70433 3.24087 5.82043 3.24087 5.96346V6.74087C3.24087 6.88389 3.35697 7 3.5 7C3.64303 7 3.75913 6.88389 3.75913 6.74087V5.96346C3.75913 5.82043 3.64303 5.70433 3.5 5.70433ZM3.5 0C3.35697 0 3.24087 0.116106 3.24087 0.259135V1.03654C3.24087 1.17957 3.35697 1.29567 3.5 1.29567C3.64303 1.29567 3.75913 1.17957 3.75913 1.03654V0.259135C3.75913 0.116106 3.64303 0 3.5 0ZM1.29567 3.5C1.29567 3.35697 1.17957 3.24087 1.03654 3.24087H0.259135C0.116106 3.24087 0 3.35697 0 3.5C0 3.64303 0.116106 3.75913 0.259135 3.75913H1.03654C1.17957 3.75913 1.29567 3.64303 1.29567 3.5ZM6.74087 3.24087H5.96346C5.82043 3.24087 5.70433 3.35697 5.70433 3.5C5.70433 3.64303 5.82043 3.75913 5.96346 3.75913H6.74087C6.88389 3.75913 7 3.64303 7 3.5C7 3.35697 6.88389 3.24087 6.74087 3.24087ZM1.75841 4.98245C1.68942 4.98245 1.6238 5.00938 1.575 5.05817L1.02476 5.60841C0.975962 5.65721 0.949039 5.72284 0.949039 5.79183C0.949039 5.86082 0.975962 5.92644 1.02476 5.97524C1.07356 6.02404 1.13918 6.05096 1.20817 6.05096C1.27716 6.05096 1.34279 6.02404 1.39159 5.97524L1.94183 5.425C2.04279 5.32404 2.04279 5.15913 1.94183 5.05817C1.89303 5.00938 1.8274 4.98245 1.75841 4.98245ZM5.24159 2.01755C5.31058 2.01755 5.3762 1.99063 5.425 1.94183L5.97524 1.39159C6.02404 1.34279 6.05096 1.27716 6.05096 1.20817C6.05096 1.13918 6.02404 1.07356 5.97524 1.02476C5.92644 0.975962 5.86082 0.949039 5.79183 0.949039C5.72284 0.949039 5.65721 0.975962 5.60841 1.02476L5.05817 1.575C5.00938 1.6238 4.98245 1.68942 4.98245 1.75841C4.98245 1.8274 5.00938 1.89303 5.05817 1.94183C5.10697 1.99063 5.1726 2.01755 5.24159 2.01755ZM1.39159 1.02476C1.34279 0.975962 1.27716 0.949039 1.20817 0.949039C1.13918 0.949039 1.07356 0.975962 1.02476 1.02476C0.975962 1.07356 0.949039 1.13918 0.949039 1.20817C0.949039 1.27716 0.975962 1.34279 1.02476 1.39159L1.575 1.94183C1.6238 1.99063 1.68942 2.01755 1.75841 2.01755C1.8274 2.01755 1.89303 1.99063 1.94183 1.94183C1.99063 1.89303 2.01755 1.8274 2.01755 1.75841C2.01755 1.68942 1.99063 1.6238 1.94183 1.575L1.39159 1.02476ZM5.425 5.05817C5.3762 5.00938 5.31058 4.98245 5.24159 4.98245C5.1726 4.98245 5.10697 5.00938 5.05817 5.05817C4.95721 5.15913 4.95721 5.32404 5.05817 5.425L5.60841 5.97524C5.65721 6.02404 5.72284 6.05096 5.79183 6.05096C5.86082 6.05096 5.92644 6.02404 5.97524 5.97524C6.02404 5.92644 6.05096 5.86082 6.05096 5.79183C6.05096 5.72284 6.02404 5.65721 5.97524 5.60841L5.425 5.05817ZM3.5 1.88462C2.60986 1.88462 1.88462 2.60986 1.88462 3.5C1.88462 4.39014 2.60986 5.11539 3.5 5.11539C4.39014 5.11539 5.11539 4.39014 5.11539 3.5C5.11539 2.60986 4.39014 1.88462 3.5 1.88462Z" fill="white"/>
</svg>
